<?xml version="1.0" standalone="no"?>
<!DOCTYPE svg PUBLIC "-//W3C//DTD SVG 20010904//EN"
 "http://www.w3.org/TR/2001/REC-SVG-20010904/DTD/svg10.dtd">
<svg version="1.0" xmlns="http://www.w3.org/2000/svg"
 width="225.000000pt" height="225.000000pt" viewBox="0 0 225.000000 225.000000"
 preserveAspectRatio="xMidYMid meet">

<g transform="translate(0.000000,225.000000) scale(0.100000,-0.100000)"
fill="#000000" stroke="none">
<path d="M710 2155 c0 -13 25 -15 161 -15 178 0 207 -8 230 -62 15 -37 39 -35
64 5 33 52 54 57 233 57 l162 0 0 -216 0 -217 -137 6 c-176 8 -228 0 -264 -41
l-28 -31 -34 34 -35 35 -180 0 -179 0 -7 186 c-4 102 -10 193 -13 201 -5 12
-3 14 7 8 9 -5 11 -4 6 3 -21 34 -26 -3 -26 -193 l0 -204 -72 -3 -73 -3 -3
-515 c-2 -449 0 -524 14 -585 56 -239 215 -421 425 -487 57 -17 97 -23 174
-22 124 0 209 28 320 105 72 49 76 54 69 82 -3 17 -41 82 -84 146 -43 64 -77
117 -76 118 1 2 18 -2 37 -7 56 -16 120 -11 184 15 81 34 105 33 105 -2 0 -16
-7 -37 -15 -47 -8 -10 -12 -23 -9 -28 3 -5 -1 -17 -9 -26 -9 -9 -17 -24 -19
-32 -2 -8 -7 -19 -13 -23 -6 -5 -4 -7 5 -4 8 2 14 10 12 16 -1 6 2 11 7 11 12
0 55 102 77 185 17 64 19 111 19 585 l0 515 -77 3 -78 3 -2 227 -3 227 -160 3
c-197 4 -217 0 -261 -44 l-34 -36 -24 29 c-36 43 -85 53 -250 53 -123 0 -146
-2 -146 -15z m29 -742 c45 -61 81 -116 81 -122 0 -19 -69 -12 -113 11 -29 15
-61 22 -104 22 l-63 1 0 184 0 183 59 -83 c33 -46 96 -134 140 -196z m981 85
l0 -173 -62 0 c-45 -1 -75 -7 -105 -23 -23 -12 -56 -22 -73 -22 l-30 0 130
195 c72 107 132 195 135 195 3 0 5 -78 5 -172z m-794 80 c4 -13 11 -26 17 -29
13 -9 2 -38 -19 -46 -8 -3 -23 2 -32 11 -11 11 -12 16 -4 16 7 0 11 4 7 10 -7
12 5 60 15 60 5 0 12 -10 16 -22z m162 -61 c-6 -11 -18 -17 -31 -15 -19 3 -22
8 -18 43 5 57 10 60 35 23 17 -24 21 -38 14 -51z m142 36 c17 -20 -6 -55 -33
-51 -19 3 -22 8 -18 43 4 52 11 62 27 39 7 -10 18 -25 24 -31z m130 12 c0 -8
6 -15 13 -18 9 -3 9 -9 1 -23 -14 -24 -50 -30 -58 -9 -4 10 -2 14 5 9 8 -4 9
1 4 15 -3 11 -3 30 0 42 5 16 10 18 21 8 8 -6 14 -17 14 -24z m-426 -157 c-4
-40 -10 -84 -14 -98 -7 -24 -8 -23 -13 10 -3 19 -9 63 -12 98 -6 62 -6 62 20
62 l26 0 -7 -72z m141 -10 c-10 -112 -21 -129 -30 -42 -11 123 -11 124 16 124
20 0 21 -3 14 -82z m141 -10 c-7 -87 -11 -107 -20 -97 -2 2 -7 46 -11 97 -7
91 -7 92 15 92 23 0 23 -1 16 -92z m150 40 c-14 -117 -19 -139 -26 -131 -4 4
-11 47 -14 96 l-7 87 27 0 c26 0 27 -1 20 -52z m-688 -273 c57 -26 130 -33
176 -15 l26 10 0 -69 c0 -68 -1 -70 -34 -90 -43 -27 -85 -27 -132 1 -27 16
-54 22 -105 22 l-69 1 0 77 c0 64 3 77 18 81 38 10 70 6 120 -18z m672 -40 c0
-55 -3 -65 -17 -65 -21 0 -53 -52 -53 -85 0 -12 -7 -28 -15 -35 -21 -17 -19
-42 3 -38 11 2 18 -4 20 -19 3 -20 -1 -23 -27 -23 -38 0 -39 -8 -3 -36 22 -18
25 -25 14 -35 -10 -11 -18 -10 -43 5 l-31 18 8 -23 c19 -58 -4 -95 -27 -45
-17 36 -29 32 -29 -9 0 -28 -4 -35 -19 -35 -20 0 -35 25 -25 41 3 5 0 9 -5 9
-6 0 -11 -13 -11 -28 0 -18 -9 -37 -25 -50 -23 -20 -30 -20 -26 1 1 5 -3 6 -9
2 -15 -9 -67 34 -85 71 -25 53 -37 133 -24 171 6 18 15 32 22 30 6 -1 13 7 15
18 2 11 13 30 24 42 23 25 44 59 54 86 3 9 10 17 14 17 9 0 25 40 22 52 -2 7
17 13 68 21 14 3 67 5 118 6 l92 1 0 -65z m348 59 c20 -6 22 -12 22 -83 l0
-76 -68 0 c-49 -1 -78 -7 -109 -23 -53 -27 -86 -28 -129 -1 -33 20 -34 22 -34
90 l0 69 26 -10 c43 -17 116 -11 174 15 57 25 80 29 118 19z m-1028 -324 c58
-30 118 -35 165 -16 21 9 42 13 45 9 4 -5 10 -26 14 -49 5 -34 2 -45 -22 -73
-37 -45 -100 -53 -163 -20 -28 14 -65 23 -104 25 l-60 3 -3 56 c-2 33 2 63 9
71 17 20 73 17 119 -6z m1028 14 c20 -6 22 -12 22 -74 l0 -68 -37 5 c-25 3
-59 -3 -98 -17 -113 -41 -165 -36 -205 20 -16 23 -18 36 -12 67 7 30 12 37 28
34 60 -12 151 -4 189 16 41 23 73 27 113 17z m-1025 -310 c53 -22 72 -26 130
-21 38 2 74 10 80 16 6 6 15 11 19 11 7 0 -131 -211 -169 -259 -5 -7 -44 32
-73 74 -34 50 -92 184 -84 196 9 15 31 11 97 -17z m321 -119 c6 -32 10 -35 41
-35 41 0 44 -11 10 -34 -17 -11 -24 -23 -21 -34 12 -40 17 -76 9 -67 -4 6 -18
19 -31 29 -22 19 -22 19 -47 -4 -31 -29 -41 -21 -26 22 11 30 10 34 -21 58
l-33 25 40 5 c35 4 41 9 50 38 12 41 21 41 29 -3z m300 0 c6 -32 10 -35 41
-35 42 0 44 -12 9 -37 -22 -16 -24 -22 -15 -46 20 -53 14 -63 -19 -32 l-30 29
-25 -24 c-31 -29 -41 -21 -26 22 11 30 10 34 -21 58 l-33 25 40 5 c34 4 41 9
49 38 12 42 22 41 30 -3z"/>
<path d="M1065 701 c-3 -5 -1 -12 5 -16 5 -3 10 1 10 9 0 18 -6 21 -15 7z"/>
<path d="M860 1943 c-67 -140 -78 -173 -61 -173 7 0 21 23 33 50 l21 50 68 0
69 0 25 -50 c14 -27 30 -50 36 -50 14 0 6 24 -57 157 -30 63 -54 118 -54 123
0 5 -4 12 -10 15 -6 3 -37 -50 -70 -122z m104 -20 c7 -22 4 -23 -38 -23 -25 0
-46 4 -46 10 0 5 10 30 22 55 l22 46 17 -33 c9 -18 20 -43 23 -55z"/>
<path d="M1272 2041 c-18 -12 -40 -36 -49 -56 -23 -48 -5 -108 40 -135 30 -19
32 -19 36 -3 2 10 -2 19 -9 21 -26 9 -50 43 -50 72 0 59 87 108 141 80 71 -37
79 -125 13 -150 -20 -8 -24 -16 -24 -50 l0 -40 45 0 c54 0 60 17 8 22 -48 4
-52 21 -9 46 68 40 68 144 2 187 -41 27 -105 30 -144 6z"/>
<path d="M1224 1801 c-14 -14 2 -22 39 -19 23 2 40 7 37 12 -5 9 -68 15 -76 7z"/>
<path d="M1572 330 c-23 -27 -38 -51 -34 -54 5 -3 17 3 27 14 10 11 15 20 11
20 -4 0 5 12 19 27 21 23 32 44 23 43 -2 -1 -22 -23 -46 -50z m-2 -24 c0 -2
-8 -10 -17 -17 -16 -13 -17 -12 -4 4 13 16 21 21 21 13z"/>
</g>
</svg>
